<svg width="16" height="16" viewBox="0 0 16 16" fill="none" xmlns="http://www.w3.org/2000/svg">
<svg x="1.6752" y="0.776" width="12.5609" height="14.5455" viewBox="0 0 12.5609 14.5455" preserveAspectRatio="none" overflow="visible">
<g id="Group">
<g id="Vector">
</g>
</g>
</svg>
<svg x="0.9252" y="0.0254" width="14.0617" height="16.0455" viewBox="0 0 14.0617 16.0455" preserveAspectRatio="none" overflow="visible">
<g id="Group">
<path id="Vector" d="M11.8534 15.2955H2.19828C1.42586 15.2955 0.75 14.6167 0.75 13.8409V3.17424V2.20455C0.75 1.42879 1.42586 0.75 2.19828 0.75H9.72931L13.3017 4.04697V13.8409C13.3983 14.6167 12.7224 15.2955 11.8534 15.2955Z" stroke="currentColor" stroke-width="1.5" stroke-miterlimit="10" stroke-linecap="round"/>
</g>
</svg>
<svg x="8.7453" y="4.9044" width="2.46552" height="1.5" viewBox="0 0 2.46552 1.5" preserveAspectRatio="none" overflow="visible">
<path id="Vector" d="M0.75 0.75H1.71552" stroke="currentColor" stroke-width="1.5" stroke-miterlimit="10" stroke-linecap="round"/>
</svg>
<svg x="3.9186" y="8.7524" width="8.25862" height="1.5" viewBox="0 0 8.25862 1.5" preserveAspectRatio="none" overflow="visible">
<path id="Vector" d="M0.75 0.75H7.50862" stroke="currentColor" stroke-width="1.5" stroke-miterlimit="10" stroke-linecap="round"/>
</svg>
<svg x="3.9186" y="11.6932" width="8.25862" height="1.5" viewBox="0 0 8.25862 1.5" preserveAspectRatio="none" overflow="visible">
<path id="Vector" d="M0.75 0.75H7.50862" stroke="currentColor" stroke-width="1.5" stroke-miterlimit="10" stroke-linecap="round"/>
</svg>
<svg x="4.0" y="4.0" width="4" height="3" viewBox="0 0 4 3" preserveAspectRatio="none" overflow="visible">
<path id="Vector" d="M3.62791 3H0.372093C0.186047 3 0 2.83333 0 2.66667V0.333333C0 0.166667 0.186047 0 0.372093 0H3.62791C3.81395 0 4 0.166667 4 0.333333V2.66667C4 2.83333 3.81395 3 3.62791 3Z" fill="currentColor"/>
</svg>
</svg>
