<svg width="16" height="16" viewBox="0 0 16 16" fill="none" xmlns="http://www.w3.org/2000/svg">
<svg x="0.8482" y="0.8729" width="14.3242" height="14.3333" viewBox="0 0 14.3242 14.3333" preserveAspectRatio="none" overflow="visible">
<g id="Group">
<path id="SVGID 2" d="M0.780856 9.38333L2.11793 11.5611C2.19659 11.7167 2.35389 11.7167 2.51119 11.7167L4.16288 11.0944C4.47749 11.3278 4.87074 11.5611 5.264 11.7167L5.49996 13.35C5.57861 13.5056 5.65726 13.5833 5.81456 13.5833H8.48872C8.64603 13.5833 8.80333 13.4278 8.80333 13.35L9.03928 11.6389C9.43254 11.4833 9.8258 11.25 10.1404 11.0167L11.7921 11.6389C11.9494 11.7167 12.1067 11.6389 12.1854 11.4833L13.5224 9.30556C13.6011 9.15 13.6011 8.99444 13.4438 8.83889L12.028 7.75C12.1067 7.59444 12.1067 7.36111 12.1067 7.12778C12.1067 6.97222 12.1067 6.66111 12.028 6.50555L13.4438 5.41667C13.6011 5.26111 13.6011 5.18333 13.5224 4.95L12.1854 2.77222C12.1067 2.61667 11.9494 2.61667 11.7921 2.61667L10.1404 3.23889C9.8258 3.00556 9.43254 2.77222 9.03928 2.61667L8.88198 0.983333C8.80333 0.827778 8.72468 0.75 8.56737 0.75H5.89322C5.73591 0.75 5.57861 0.905556 5.57861 0.983333L5.34265 2.61667C4.9494 2.77222 4.55614 3.00556 4.24153 3.23889L2.58984 2.61667C2.43254 2.53889 2.27524 2.61667 2.19659 2.77222L0.859507 4.95C0.780856 5.10556 0.780856 5.33889 0.938159 5.41667L2.35389 6.50555C2.27524 6.66111 2.27524 6.97222 2.27524 7.20556C2.27524 7.43889 2.27524 7.67222 2.35389 7.82778L0.938159 8.91667C0.780856 9.07222 0.702204 9.30555 0.780856 9.38333Z" stroke="currentColor" stroke-width="1.5" stroke-miterlimit="10"/>
</g>
</svg>
<svg x="6.0336" y="6.056" width="4.08989" height="4.04444" viewBox="0 0 4.08989 4.04444" preserveAspectRatio="none" overflow="visible">
<g id="Group">
<path id="SVGID 1" fill-rule="evenodd" clip-rule="evenodd" d="M4.08989 2.02222C4.08989 3.18889 3.14607 4.04444 2.04494 4.04444C0.865168 4.04444 0 3.11111 0 2.02222C0 0.933334 0.94382 0 2.04494 0C3.22472 0 4.08989 0.855556 4.08989 2.02222Z" fill="currentColor"/>
</g>
</svg>
</svg>
